<?xml version="1.0" encoding="UTF-8"?>
<svg id="Calque_2" data-name="Calque 2" xmlns="http://www.w3.org/2000/svg" viewBox="0 0 600 466.67">
  <defs>
    <style>
      .cls-1 {
        fill: #fff;
      }
    </style>
  </defs>
  <g id="Calque_1-2" data-name="Calque 1">
    <path class="cls-1" d="M566.67,466.67H33.33c-18.41,0-33.33-14.92-33.33-33.33s14.92-33.33,33.33-33.33h533.33c18.41,0,33.33,14.92,33.33,33.33s-14.92,33.33-33.33,33.33Z"/>
    <path class="cls-1" d="M566.67,266.67H33.33c-18.41,0-33.33-14.92-33.33-33.33s14.92-33.33,33.33-33.33h533.33c18.41,0,33.33,14.92,33.33,33.33s-14.92,33.33-33.33,33.33Z"/>
    <path class="cls-1" d="M566.67,66.67H33.33C14.92,66.67,0,51.74,0,33.33S14.92,0,33.33,0h533.33c18.41,0,33.33,14.92,33.33,33.33s-14.92,33.33-33.33,33.33Z"/>
  </g>
</svg>