<?xml version="1.0" encoding="UTF-8"?>
<svg id="Calque_2" data-name="Calque 2" xmlns="http://www.w3.org/2000/svg" viewBox="0 0 17.05 17.06">
  <defs>
    <style>
      .cls-1 {
        fill: #e8e8e8;
      }
    </style>
  </defs>
  <g id="Calque_1-2" data-name="Calque 1">
    <path class="cls-1" d="M12.5,11h-.79l-.28-.27c1.2-1.4,1.82-3.31,1.48-5.34C12.44,2.61,10.12.39,7.32.05,3.09-.47-.47,3.09.05,7.32c.34,2.8,2.56,5.12,5.34,5.59,2.03.34,3.94-.28,5.34-1.48l.27.28v.79l4.25,4.25c.41.41,1.08.41,1.49,0s.41-1.08,0-1.49l-4.24-4.26ZM6.5,11c-2.49,0-4.5-2.01-4.5-4.5S4.01,2,6.5,2s4.5,2.01,4.5,4.5-2.01,4.5-4.5,4.5Z"/>
  </g>
</svg>